<?xml version="1.0" encoding="UTF-8"?>
<svg id="_圖層_1" data-name="圖層 1" xmlns="http://www.w3.org/2000/svg" viewBox="0 0 148.24 153.8">
  <defs>
    <style>
      .cls-1 {
        fill: #909090;
      }
    </style>
  </defs>
  <path class="cls-1" d="m52.56,18.93s22.02.41,39.49-3.56c0,0,3.02,7.64-18.35,9.51-21.36,1.87-21.26-2.49-21.14-5.95Z"/>
  <path class="cls-1" d="m57.67,27.46c3.53,2.02,13.79,5.92,31-3.12.26-.14.56.06.54.35-.3,3.54-2.79,20.99-23.06,29.5-.51.21-1.49-.03-1.51-.79-.09-2.43-.64-9.56-7.65-25.3-.19-.43.27-.87.69-.63Z"/>
  <path class="cls-1" d="m91.91,28.44c.22-1.66,2.34-2.22,3.32-.86,2.98,4.09,6.01,8.15,8.99,12.24,3.12,4.27,6.22,8.56,9.1,13,.86,1.33,1.76,2.65,2.53,4.05.62,1.12,1.75,2.64,1.43,3.99-.13.57-.53,1.04-.98,1.41-3.93,3.35-8.48,5.97-13.36,7.67-5.39,1.88-11.08,1.98-16.65,3.03-6.44,1.22-12.61,3.47-18.5,6.31-10.86,5.25-17.76,15.75-18.89,17.26s-6,8.67-9.75,8.97c-.15.01-.29-.03-.42-.11-1.21-.77-7.36-5.51-10.86-17.46-.19-.65.11-1.35.68-1.71,3.4-2.15,15.52-9.55,29.31-15.04,16.79-6.68-27.78-7.03-23.84-14.5,4.52-8.57,9.16-17.33,14.57-25.37.34-.5.7-1.02,1.23-1.33,2.98-1.73,6.65,9.32,7.23,10.86,1.16,3.11,2.18,6.27,3.09,9.46.36,1.25.69,2.51,1,3.77.36,1.5.19,3.6,1.44,4.69.06.05.13.1.19.15,2.31,1.58,6.43-.84,8.44-2.02,3.14-1.86,5.98-4.22,8.57-6.78,5.75-5.71,10.82-13.06,12.08-21.23.02-.16.05-.31.07-.47Z"/>
  <path class="cls-1" d="m31.61,62.11c-1.37,2.11-7.1,11.76-3.96,20.64.01.04.05.06.09.04,1.1-.68,16.6-10.21,25.76-13.61.2-.07.17-.37-.05-.39-3.78-.37-17.37-2.95-21.23-6.73-.19-.18-.48-.17-.62.05Z"/>
  <path class="cls-1" d="m41.2,109c2.09,1.61,4.36,3.01,6.67,4.28,4.37,2.4,9.03,4.3,13.85,5.57,6.16,1.62,12.59,2.18,18.93,1.43,7.83-.92,15.29-3.84,21.89-8.11,3.41-2.21,6.68-4.7,9.36-7.77,1.45-1.66,2.69-3.57,3.81-5.47,3.14-5.31,6-11.26,5.81-17.44-.21-6.6-.83-11.02-2.77-16.18-.03-.09-.15-.09-.19,0-.83,1.87-9.6,6.75-10.74,7.28-7.2,3.35-15.41,4.04-23.22,5.43-7.86,1.39-15.63,4.23-22.06,9.05-4.52,3.39-8.31,9.55-11.98,13.82-.77.89-7.35,7.84-9.31,7.98-.08,0-.11.1-.05.15Z"/>
</svg>